<svg width="174" height="174" viewBox="0 0 174 174" fill="none" xmlns="http://www.w3.org/2000/svg">
<path d="M91.1127 7.10825C102.436 -4.92515 122.623 0.863463 125.848 17.0686C127.787 26.806 136.476 33.718 146.4 33.4161C162.915 32.9137 173.097 51.2814 163.919 65.021C158.404 73.2769 159.661 84.3089 166.892 91.1127C178.925 102.436 173.137 122.623 156.931 125.848C147.194 127.787 140.282 136.476 140.584 146.4C141.086 162.915 122.719 173.097 108.979 163.919C100.723 158.404 89.6911 159.661 82.8873 166.892C71.5645 178.925 51.3772 173.137 48.1516 156.931C46.2134 147.194 37.5238 140.282 27.5999 140.584C11.0845 141.086 0.903134 122.719 10.081 108.979C15.5959 100.723 14.339 89.6911 7.10826 82.8873C-4.92514 71.5645 0.863469 51.3772 17.0686 48.1516C26.806 46.2134 33.718 37.5238 33.4161 27.5999C32.9137 11.0845 51.2814 0.903124 65.021 10.081C73.2769 15.5959 84.3089 14.3389 91.1127 7.10825Z" fill="#6153CC"/>
</svg>
