<svg width="48" height="48" viewBox="0 0 48 48" fill="none" xmlns="http://www.w3.org/2000/svg">
<path d="M10.0341 2C5.58358 2 2 5.58357 2 10.0341V37.9658C2 42.4164 5.58358 46 10.0341 46H25.1729V28.7987H20.6244V22.6057H25.1729V17.3147C25.1729 13.1578 27.8604 9.34112 34.0513 9.34112C36.5579 9.34112 38.4114 9.58176 38.4114 9.58176L38.2656 15.365C38.2656 15.365 36.3753 15.3472 34.3125 15.3472C32.08 15.3472 31.722 16.3758 31.722 18.0834V22.6058H38.443L38.1501 28.7988H31.722V46H37.9659C42.4164 46 46 42.4164 46 37.9659V10.0342C46 5.58362 42.4164 2.00004 37.9659 2.00004H10.0341L10.0341 2Z" fill="#6153CC"/>
</svg>
