<svg width="129" height="56" viewBox="0 0 129 56" fill="none" xmlns="http://www.w3.org/2000/svg">
<g clip-path="url(#clip0_1483_2426)">
<path d="M128 21.8208C127.2 20.5656 126 19.6966 125.2 18.4414C124.4 17.0897 124.1 15.6414 124.1 14.0966C124.1 12.3587 124.1 10.6208 124.1 8.88282C124.2 5.02075 122.5 2.70351 119.2 2.41385C117.9 2.3173 116.4 2.41385 115 2.60696C111.9 2.99316 109.4 4.7311 108.1 7.5311C107.3 9.26903 106.7 11.1035 105.9 12.938C105.4 14.0001 104.8 14.9656 104 15.9311C103.6 16.4139 103.2 16.8001 102.7 17.1863C102.1 17.669 101.8 17.8621 101 17.8621C101.4 18.2483 101.8 18.3449 102.3 18.538C102.5 18.6345 103.8 18.9242 103.9 18.7311C102.6 22.4001 98.4 24.8139 94.6 25.4897C95.3 26.5518 96.4 27.3242 97.6 27.6139C99.1 28.0966 101.1 27.3242 102.7 27.6139C104.7 28.0966 105.9 29.738 103.6 31.4759C105.6 31.7656 107.5 31.5725 109.2 30.4139C110.4 29.6414 112.4 28.2897 113.9 28.3863C114.8 28.4828 116.4 29.9311 114.9 30.9932C115.1 31.0897 115.7 31.2828 116.3 31.1863C118.1 30.9932 119.6 30.4139 121 29.4483C122.5 28.4828 123.4 27.0345 124.9 26.1656C125.7 25.6828 127.5 25.2966 128 27.0345C128 27.2276 128.1 27.3242 128.1 27.5173C129.2 25.8759 129.2 23.4621 128 21.8208ZM113.8 14.1932C111.3 14.3863 110.3 9.55868 112.1 9.07592C113.9 8.59316 119.1 12.7449 119.1 12.7449C119.1 12.7449 116.3 14.0001 113.8 14.1932ZM122.4 13.1311C121.1 13.1311 119.5 12.6483 119.5 12.6483C119.5 12.6483 122 10.138 123 10.2345C124 10.4276 123.7 13.1311 122.4 13.1311Z" fill="#222931"/>
<path d="M79.2 37.6552C80.8 28.3862 83.7 11.2 84.4 7.62759C85.2 7.24138 91.1 6.27586 93.6 5.88966C94.7 5.69655 95.5 5.6 95.8 5.50345C96.1 5.4069 96.4 5.4069 96.7 5.31034C97.5 5.21379 98.4 5.02069 99 4.73103C100.9 3.95862 102.6 1.64138 103.5 0.386207L104 0L103.3 0.0965521C102.3 0.193104 101.3 0.289655 100.3 0.386207C93.8 1.15862 87.3 2.31724 81.7 3.37931C78.4 4.05517 75 4.73103 71.6 5.50345C70.5 5.69655 69.4 5.88966 68.2 6.17931C65.5 6.66207 62.7 7.14483 60.2 8.11034C59.6 8.30345 59.2 8.5931 58.8 8.97931C58.3 9.46207 57.8 10.331 57.7 10.9103C57.6 11.3931 57.6 11.9724 57.7 12.4552C57.8 12.7448 58.1 12.9379 58.5 12.9379C58.6 12.9379 58.8 12.9379 58.9 12.8414C60.5 12.4552 69.2 10.7172 71.8 10.2345L76.9 9.26897C77.1 9.26897 77.4 9.17241 77.7 9.07586C76.8 13.6138 75.6 21.0483 75 24.6207L74.5 28C74.4 28.4828 74.3 29.3517 74.2 30.3172C73.9 32.6345 73.5 35.9172 73.1 38.4276C71.7 38.6207 70.2 38.7172 68.8 38.9103C69.9 37.5586 70.7 36.0138 71.4 33.9862C72.3 31.0897 70.1 29.4483 67.9 27.9034C66.9 27.131 65.9 26.4552 65.1 25.5862C64.2 24.5241 64.7 22.9793 65.3 21.9172C66.3 19.8897 68.1 18.1517 68.7 17.9586C68.7 18.4414 68.3 19.7931 68 20.5655C67.8 21.2414 67.6 21.9172 67.5 22.4C67.2 23.6552 67.5 25.2966 70.4 26.1655C70.6 26.2621 70.8 26.2621 71 26.2621C71.7 26.2621 72.1 25.6828 72.3 25.2C73.1 23.5586 74.3 20.2759 74.5 18.3448C74.7 17.0897 74.7 15.6414 73.5 14.4828C72.7 13.7103 71.2 12.8414 69.8 12.4552C69.4 12.3586 69.1 12.3586 68.7 12.3586C67.3 12.3586 66.1 13.0345 65.3 13.5172C62.9 15.2552 60.3 18.4414 59 21.3379C57.8 24.1379 58.1 26.9379 60 28.869C60.5 29.4483 61.4 29.8345 62.4 30.3172C63.8 30.9931 65.4 31.8621 65.8 33.0207C66.3 34.5655 65 36.1103 64.6 36.4966C63.5 37.3655 62.7 37.8483 62.2 37.8483C61.7 37.8483 61.5 37.3655 61.2 36.4C60.9 35.531 60.5 34.469 59.6 33.7931C59.1 33.5034 58.5 33.3103 57.7 33.3103C56.8 33.3103 56 33.5034 55.3 33.9862C55 34.1793 54.6 34.469 54.6 34.9517C54.5 35.531 54.8 36.1103 55.5 37.0759C56.1 37.9448 56.5 38.8138 56.9 39.7793C57 40.069 57.1 40.2621 57.2 40.5517C55.7 40.7448 54.1 41.0345 52.6 41.3241C50 41.7103 47.3 42.1931 44.4 42.5793C41.4 43.0621 38.3 43.5448 35.2 44.0276C36 39.4897 37 33.6 37.8 29.2552C38.4 29.1586 39 28.9655 39.6 28.869C39 31.8621 39 34.469 39.6 36.4C40 37.7517 41.1 38.8138 41.8 39.2C42.8 39.7793 44.4 40.1655 45.9 40.1655C46 40.1655 46 40.1655 46.1 40.1655C48.3 40.1655 50 39.4897 51.4 37.8483C56 33.0207 58.5 24.1379 58.2 18.3448C58.1 16.7034 57.5 15.4483 56.4 14.4828C55.4 13.6138 53.6 13.0345 51.7 12.9379C51.6 12.9379 51.6 12.9379 51.5 12.9379C50.1 12.9379 48.2 13.7103 47.1 14.6759C44.7 16.8 42.6 19.9862 41.1 23.5586C40.2 23.7517 39.4 23.8483 38.6 24.0414C39.2 20.7586 39.8 18.1517 40.1 16.5103C40.3 15.4483 40.1 14.869 39.1 14.4828C38.2 14.0966 37.1 13.8069 36 13.7103C35.9 13.7103 35.8 13.7103 35.7 13.7103C34.7 13.7103 34.2 14.0966 34 15.1586C33.8 16.2207 33.1 19.9862 32.3 25.2966C31.2 25.4897 30.2 25.6828 29.1 25.9724C30.1 20.3724 31.2 14.0966 31.5 13.0345C31.7 11.8759 31.5 11.4897 30.5 11.0069C29.6 10.6207 28.2 10.2345 27.3 10.1379C27.1 10.1379 27 10.1379 26.9 10.1379C26 10.1379 25.6 10.6207 25.3 11.5862C24.8 13.9034 23.3 21.8207 22.4 27.4207C21.1 27.7103 18.8 28.1931 17.1 28.5793C16.1 28.7724 15.4 28.9655 15.2 28.9655C13.8 29.2552 11.5 29.931 10.1 30.4138C9.4 30.6069 8.8 30.8966 8.9 31.8621C9.1 33.9862 10.1 34.9517 11.8 34.9517C11.9 34.9517 12 34.9517 12.1 34.9517C10.8 37.4621 9.3 39.2966 8.4 39.2966C8.3 39.2966 8.3 39.2966 8.2 39.2966C7.8 39.2 7.4 37.7517 7.4 34.8552C7.5 32.2483 7.9 29.4483 8.5 27.5172C10.5 21.2414 13.6 15.931 15.2 15.931C15.3 15.931 15.4 15.931 15.6 16.0276C16.1 16.3172 16.1 17.5724 16.1 18.731C16.1 19.7931 16.1 20.7586 16.5 21.3379C17.1 22.3034 18.3 23.1724 19.2 23.5586L19.5 23.6552L19.6 23.3655C20.4 21.9172 21.3 19.8897 21.7 17.7655C22.1 15.3517 21.6 13.6138 20.3 12.3586C19.3 11.4897 17.4 10.8138 15.6 10.8138C15.5 10.8138 15.4 10.8138 15.3 10.8138C14.4 10.8138 12.7 11.0069 11.3 12.1655C8.5 14.4828 5.6 19.6 3.5 25.7793C1.6 31.5724 0.900001 37.1724 1.7 39.8759C2 41.0345 2.9 42.1931 4 42.7724C5.2 43.4483 6.6 43.8345 8 43.931C9.3 44.0276 10.6 43.7379 11.8 43.0621C11.8 43.1586 11.8 43.1586 11.8 43.2552C11.6 44.4138 11.5 44.8965 11.7 45.669C11.9 46.3448 12.1 46.731 12.7 47.0207H12.8C13.2 47.2138 13.5 47.4069 13.8 47.4069C14 47.4069 14.1 47.4069 14.3 47.3103C14.9 47.0207 15.3 46.2483 15.7 45.3793C15.7 45.2828 15.8 45.1862 15.9 45.0897C17.1 42 17.3 41.2276 17.8 39.4897C17.9 39.1035 18 38.7172 18.2 38.331C18.4 37.5586 18.6 36.9793 18.8 36.4C19 35.8207 19.2 35.2414 19.4 34.469C19.6 33.6 19.8 32.8276 19.9 32.4414C20.5 32.3448 21.1 32.1517 21.7 32.0552L21.5 33.6C21.2 36.2069 20.9 38.5241 20.8 40.069C20.7 41.2276 20.9 41.9035 21.9 42.3862C22.6 42.6759 23.7 42.869 24.7 42.9655C24.8 42.9655 24.8 42.9655 24.9 42.9655C25.8 42.9655 26.2 42.5793 26.4 41.6138C26.5 40.7448 27.3 36.5931 28.3 30.8L30.9 30.3172C31.1 30.3172 31.4 30.2207 31.6 30.2207C31.1 33.4069 29.9 40.6483 29.3 44.8C26.1 45.3793 23.1 45.9586 20.1 46.731C19 46.9241 17.9 47.1172 16.9 47.3103C14.7 47.6966 12.5 48.0828 10.4 48.8552C7.4 49.9172 4.7 51.3655 2.2 53.3931C1.4 53.9724 0.599998 54.7448 0.0999985 55.6138L0.5 56C0.8 55.6138 3.5 55.2276 4.6 55.0345C5.1 54.9379 5.5 54.9379 5.7 54.8414C7.9 54.3586 10.1 53.7793 12.3 53.2966C16.7 52.331 21.3 51.3655 26 50.4966C27.1 50.3034 28.2 50.1103 29.4 49.8207C29.5 49.9172 29.7 50.0138 29.8 50.1103C30.6 50.4966 31.7 50.5931 32.6 50.6897C32.7 50.6897 32.7 50.6897 32.8 50.6897C33.8 50.6897 34.1 50.2069 34.2 49.3379C34.2 49.2414 34.2 49.1448 34.2 49.0483C40.4 47.9862 46.8 46.9241 53.7 45.9586C59.8 45.0897 66 44.3172 72.8 43.5448C73 43.931 73.3 44.1241 73.7 44.3172C74.4 44.6069 75.5 44.8 76.5 44.8965C76.6 44.8965 76.6 44.8965 76.7 44.8965C77.6 44.8965 78 44.5103 78.2 43.5448C78.2 43.4483 78.2 43.2552 78.3 43.0621C78.5 43.0621 78.7 43.0621 78.8 43.0621C83.9 42.6759 89.7 42.2897 93.9 39.0069C94.5 38.5241 95.1 37.9448 95.6 37.269C95.8 36.9793 96 36.7862 96 36.4966L96.1 36.1103L92.4 36.4966C88.1 36.7862 83.7 37.1724 79.2 37.6552ZM46.3 27.5172C47.1 27.3241 47.6 27.2276 47.9 27.2276C49.5 26.8414 50.2 26.3586 50.6 25.5862C50.7 25.2966 50.8 25.0069 50.8 24.8138C50.8 24.6207 50.9 24.4276 50.9 24.2345C51.1 23.6552 51.2 23.269 50.9 22.8828C50.8 22.6897 50.6 22.4 50.2 22.4C50.1 22.4 50 22.4 49.8 22.4965C49.4 22.5931 49 22.5931 48.5 22.6897C50 19.8897 51.4 18.3448 52 18.3448C52 18.3448 52.1 18.3448 52.2 18.5379C52.9 19.6 52.1 24.2345 50.9 27.6138C49.1 32.8276 47 35.6276 45.9 35.6276C45.8 35.6276 45.8 35.6276 45.7 35.6276C45.6 35.6276 45.5 35.531 45.4 35.3379C44.8 34.0828 45.2 30.8 46.3 27.5172Z" fill="#222931"/>
</g>
<defs>
<clipPath id="clip0_1483_2426">
<rect width="128.9" height="56" fill="white"/>
</clipPath>
</defs>
</svg>
