<svg width="48" height="48" viewBox="0 0 48 48" fill="none" xmlns="http://www.w3.org/2000/svg">
<path d="M20.1626 7.44839C21.7698 4.32876 26.2302 4.32876 27.8374 7.44839C28.8032 9.32293 30.9819 10.2254 32.9903 9.58279C36.3327 8.51336 39.4866 11.6673 38.4172 15.0097C37.7746 17.0181 38.6771 19.1968 40.5516 20.1626C43.6712 21.7698 43.6712 26.2302 40.5516 27.8374C38.6771 28.8032 37.7746 30.9819 38.4172 32.9903C39.4866 36.3327 36.3327 39.4866 32.9903 38.4172C30.9819 37.7746 28.8032 38.6771 27.8374 40.5516C26.2302 43.6712 21.7698 43.6712 20.1626 40.5516C19.1968 38.6771 17.0181 37.7746 15.0097 38.4172C11.6673 39.4866 8.51336 36.3327 9.58279 32.9903C10.2254 30.9819 9.32293 28.8032 7.44839 27.8374C4.32876 26.2302 4.32876 21.7698 7.44839 20.1626C9.32293 19.1968 10.2254 17.0181 9.58279 15.0097C8.51336 11.6673 11.6673 8.51336 15.0097 9.58279C17.0181 10.2254 19.1968 9.32293 20.1626 7.44839Z" fill="#6153CC"/>
<path d="M16.8867 24.6875C16.8867 27.0703 17.5 28.9453 18.7266 30.3125C19.9531 31.6719 21.707 32.3516 23.9883 32.3516C26.2539 32.3516 28.0078 31.6719 29.25 30.3125C30.5 28.9453 31.125 27.0703 31.125 24.6875V22.25C31.125 19.8906 30.5039 18.0234 29.2617 16.6484C28.0195 15.2734 26.2617 14.5859 23.9883 14.5859C21.7148 14.5859 19.9609 15.2773 18.7266 16.6602C17.5 18.0352 16.8867 19.8984 16.8867 22.25V24.6875ZM20.5898 24.9102V22.0742C20.5898 20.7305 20.8594 19.6562 21.3984 18.8516C21.9453 18.0469 22.8125 17.6445 24 17.6445C25.1953 17.6445 26.0703 18.0469 26.625 18.8516C27.1797 19.6562 27.457 20.7305 27.457 22.0742V24.9102C27.457 26.2773 27.1797 27.3555 26.625 28.1445C26.0703 28.9336 25.1953 29.3281 24 29.3281C22.8047 29.3281 21.9375 28.9336 21.3984 28.1445C20.8594 27.3555 20.5898 26.2773 20.5898 24.9102Z" fill="white"/>
</svg>
