<svg width="63" height="56" viewBox="0 0 63 56" fill="none" xmlns="http://www.w3.org/2000/svg">
<path d="M61.1666 11.4761C60.2046 9.23035 58.8176 7.19529 57.083 5.48481C55.3472 3.76924 53.3006 2.4059 51.0546 1.46893C48.7255 0.493485 46.2276 -0.00580159 43.7056 5.08598e-05C40.1674 5.08598e-05 36.7154 0.976889 33.7155 2.82203C32.9979 3.26341 32.3161 3.74821 31.6702 4.27643C31.0243 3.74821 30.3425 3.26341 29.6248 2.82203C26.6249 0.976889 23.1729 5.08598e-05 19.6348 5.08598e-05C17.087 5.08598e-05 14.6182 0.492088 12.2858 1.46893C10.0323 2.40958 8.00126 3.76269 6.25731 5.48481C4.52052 7.19336 3.13312 9.2289 2.17374 11.4761C1.17618 13.8133 0.666626 16.2952 0.666626 18.8494C0.666626 21.2589 1.15465 23.7698 2.12351 26.324C2.93448 28.4586 4.09711 30.6728 5.5827 32.9086C7.93667 36.447 11.1734 40.1372 15.1924 43.8782C21.8524 50.0793 28.4478 54.3629 28.7277 54.5366L30.4286 55.6364C31.1822 56.1212 32.151 56.1212 32.9046 55.6364L34.6055 54.5366C34.8854 54.3557 41.4736 50.0793 48.1408 43.8782C52.1598 40.1372 55.3965 36.447 57.7505 32.9086C59.2361 30.6728 60.4059 28.4586 61.2097 26.324C62.1785 23.7698 62.6666 21.2589 62.6666 18.8494C62.6737 16.2952 62.1642 13.8133 61.1666 11.4761Z" fill="#070707"/>
</svg>
