<svg width="44" height="48" viewBox="0 0 44 48" fill="none" xmlns="http://www.w3.org/2000/svg">
<path fill-rule="evenodd" clip-rule="evenodd" d="M16.6957 0C8.62749 0 2.08695 6.54053 2.08695 14.6087V24.6069C0.748702 27.428 0 30.5831 0 33.913V36.8043C0 42.9875 5.01246 48 11.1957 48H32.2826C38.4658 48 43.4783 42.9875 43.4783 36.8043V33.913C43.4783 30.5831 42.7296 27.428 41.3913 24.6069V14.6087C41.3913 6.54053 34.8508 0 26.7826 0H16.6957ZM34.4348 16.2642V14.6087C34.4348 10.3825 31.0088 6.95652 26.7826 6.95652H16.6957C12.4695 6.95652 9.04347 10.3825 9.04347 14.6087V16.2642C12.6154 13.6903 17.0002 12.1739 21.7391 12.1739C26.4781 12.1739 30.8629 13.6903 34.4348 16.2642ZM31.5161 21.6887C31.2058 20.9669 30.7584 20.3128 30.1988 19.763C29.6389 19.2115 28.9787 18.7733 28.2542 18.4722C27.5029 18.1586 26.6971 17.9981 25.8835 18C24.7422 18 23.6286 18.314 22.6609 18.9071C22.4294 19.049 22.2095 19.2048 22.0011 19.3746C21.7928 19.2048 21.5729 19.049 21.3413 18.9071C20.3736 18.314 19.2601 18 18.1188 18C17.2969 18 16.5005 18.1582 15.7481 18.4722C15.0212 18.7745 14.366 19.2094 13.8034 19.763C13.2432 20.3121 12.7956 20.9664 12.4862 21.6887C12.1644 22.44 12 23.2377 12 24.0587C12 24.8332 12.1574 25.6403 12.47 26.4613C12.7316 27.1474 13.1066 27.8591 13.5858 28.5778C14.3452 29.7151 15.3893 30.9013 16.6857 32.1037C18.8341 34.0969 20.9617 35.4738 21.052 35.5296L21.6006 35.8831C21.8437 36.039 22.1563 36.039 22.3993 35.8831L22.948 35.5296C23.0383 35.4715 25.1635 34.0969 27.3143 32.1037C28.6107 30.9013 29.6548 29.7151 30.4141 28.5778C30.8934 27.8591 31.2707 27.1474 31.53 26.4613C31.8426 25.6403 32 24.8332 32 24.0587C32.0023 23.2377 31.8379 22.44 31.5161 21.6887Z" fill="#FF6683"/>
</svg>
